<svg style="width:100%; height:100%;" viewBox="0 0 900 469" version="1.1" xmlns="http://www.w3.org/2000/svg" xmlns:xlink="http://www.w3.org/1999/xlink">
    <!-- Generator: Sketch 3.8.3 (29802) - http://www.bohemiancoding.com/sketch -->
    <title>Author Bio</title>
    <desc>Created with Sketch.</desc>
    <defs>
        <path d="M78.4771825,0.549632329 C35.4350327,0.549632329 0.551376017,35.4452209 0.551376017,78.4718203 C0.551376017,121.49842 35.4350327,156.394008 78.4771825,156.394008 C121.519332,156.394008 156.402989,121.49842 156.402989,78.4718203 C156.402989,35.4452209 121.519332,0.549632329 78.4771825,0.549632329" id="path-1"></path>
    </defs>
    <g id="Page-1" stroke="none" stroke-width="1" fill="none" fill-rule="evenodd">
        <g id="Desktop" transform="translate(-71.000000, -2588.000000)">
            <g id="Author-Bio" transform="translate(71.000000, 2588.000000)">
                <polygon id="Line" fill="#87B2EC" points="0 467.083333 900 467.083333 900 468.416 0 468.416"></polygon>
                <text font-family=".SFNSDisplay-Regular, .SF NS Display" font-size="34" font-weight="normal" fill="#87B2EC">
                    <tspan x="371" y="33">Author Bio</tspan>
                </text>
                <text id="Nullam-volutpat-quam" font-family="OpenSans, Open Sans" font-size="20" font-weight="normal" fill="#87B2EC">
                    <tspan x="371" y="81">Nullam volutpat quam a auctor dictum. Aliquam </tspan>
                    <tspan x="371" y="108">tempor gravida interdum. Duis quis urna velit. </tspan>
                    <tspan x="371" y="135">Mauris fermentum tincidunt tellus ac sagittis. </tspan>
                    <tspan x="371" y="162">Nam semper viverra purus non fermentum. Sed </tspan>
                    <tspan x="371" y="189">eu ipsum sit amet lorem sagittis consectetur. </tspan>
                    <tspan x="371" y="216">Curabitur facilisis ut sapien sed pretium. </tspan>
                    <tspan x="371" y="243">Vivamus vel mi at odio tempus porttitor non </tspan>
                    <tspan x="371" y="270">porttitor ipsum. Suspendisse erat quam, varius </tspan>
                    <tspan x="371" y="297">sit amet erat et, scelerisque blandit eros. </tspan>
                    <tspan x="371" y="324">Suspendisse est mauris, tempor sed felis sit </tspan>
                    <tspan x="371" y="351">amet, vestibulum consectetur purus.</tspan>
                </text>
                <g id="Facebook" transform="translate(107.000000, 187.000000)">
                    <ellipse id="Oval-1" fill="#87B2EC" cx="15" cy="15" rx="15" ry="15"></ellipse>
                    <path d="M12.9380952,22.3012198 L15.6700952,22.3012198 L15.6700952,14.7971375 L17.7195952,14.7971375 L18.1249286,12.4523829 L15.6700952,12.4523829 L15.6700952,10.753295 C15.6700952,10.2055627 16.0242619,9.63046889 16.5304286,9.63046889 L17.9255952,9.63046889 L17.9255952,7.28571429 L16.2157619,7.28571429 L16.2157619,7.29622514 C13.5404286,7.39332541 12.9907619,8.94275873 12.9430952,10.5702727 L12.9380952,10.5702727 L12.9380952,12.4523829 L11.5714286,12.4523829 L11.5714286,14.7971375 L12.9380952,14.7971375 L12.9380952,22.3012198 Z" id="Fill-4" fill="#FFFFFF"></path>
                </g>
                <g id="You-Tube" transform="translate(147.000000, 187.000000)">
                    <ellipse id="Oval-1-Copy-2" fill="#87B2EC" cx="15" cy="15" rx="15" ry="15"></ellipse>
                    <polygon id="Fill-9" fill="#FFFFFF" points="10.7142857 8.14285714 10.7142857 22.2857143 22.3744897 15.2142857"></polygon>
                </g>
                <g id="Instagram" transform="translate(191.000000, 189.000000)">
                    <ellipse id="Oval-1-Copy-20" fill="#87B2EC" cx="14" cy="14" rx="14" ry="14"></ellipse>
                    <g id="Group-6" transform="translate(7.200000, 6.800000)" fill="#FFFFFF">
                        <path d="M12.6874222,2.62771346 C12.6874222,3.11152417 12.2957333,3.50361795 11.8124222,3.50361795 L10.9374222,3.50361795 C10.4542667,3.50361795 10.0624222,3.11152417 10.0624222,2.62771346 L10.0624222,2.18968336 C10.0624222,1.70602836 10.4542667,1.31393459 10.9374222,1.31393459 L11.8124222,1.31393459 C12.2957333,1.31393459 12.6874222,1.70602836 12.6874222,2.18968336 L12.6874222,2.62771346 Z M11.3748444,0 L3.49984444,0 L3.49984444,4.37952243 L4.58515556,4.37952243 C5.22106667,3.79356179 6.06744444,3.432767 6.99984444,3.432767 C7.9324,3.432767 8.77877778,3.79356179 9.41484444,4.37952243 L13.125,4.37952243 L13.125,11.3867583 C13.125,12.3543797 12.3414667,13.1385673 11.3748444,13.1385673 L2.62484444,13.1385673 C1.65837778,13.1385673 0.875,12.3543797 0.875,11.3867583 L0.875,4.81755253 L0.875,4.37952243 L0.875,0.673006078 C0.339111111,1.15416961 0,1.85037742 0,2.62771346 L0,11.3867583 C0,12.8380347 1.17522222,14.0144718 2.62484444,14.0144718 L11.3748444,14.0144718 C12.8246222,14.0144718 14,12.8380347 14,11.3867583 L14,4.37952243 L14,3.06574356 L14,2.62771346 C14,1.17643705 12.8246222,0 11.3748444,0 L11.3748444,0 Z" id="Fill-33"></path>
                        <path d="M2.475,4.37952243 L2.475,0 C2.16777778,0 1.87408889,0.0555907381 1.6,0.152602026 L1.6,4.37952243 L2.475,4.37952243 Z" id="Fill-35"></path>
                        <path d="M5.2876,7.46757685 C5.2876,6.48516237 6.08326667,5.68867323 7.06466667,5.68867323 C8.04606667,5.68867323 8.84173333,6.48516237 8.84173333,7.46757685 C8.84173333,8.44999132 8.04606667,9.24648046 7.06466667,9.24648046 C6.08326667,9.24648046 5.2876,8.44999132 5.2876,7.46757685 M9.72933333,7.46757685 C9.72933333,5.99434443 8.53637778,4.8 7.06466667,4.8 C5.59295556,4.8 4.4,5.99434443 4.4,7.46757685 C4.4,8.94080926 5.59295556,10.134998 7.06466667,10.134998 C8.53637778,10.134998 9.72933333,8.94080926 9.72933333,7.46757685" id="Fill-37"></path>
                    </g>
                </g>
                <g id="Bio-Avatar" transform="translate(82.000000, 0.000000)">
                    <g id="Avatar">
                        <mask id="mask-2" fill="white">
                            <use xlink:href="#path-1"></use>
                        </mask>
                        <use id="Mask" fill="#87B2EC" xlink:href="#path-1"></use>
                        <g mask="url(#mask-2)">
                            <g transform="translate(31.000000, 31.000000)">
                                <path d="M26.811171,93.3856259 L33.8569397,93.3856259 C33.8569397,93.3856259 36.1630068,91.8804421 37.7863055,91.8804421 L37.7863055,87.638551 C37.7863055,87.638551 46.5808086,92.0669862 55.6717131,87.7753858 L55.6717131,91.6067725 C55.6717131,91.6067725 56.0580896,90.8734174 60.0075647,93.5224607 L70.576213,93.5224607 C70.576213,93.5224607 93.0472973,96.3217575 93.0472973,125.717172 L1.27027027,125.717172 C1.27027027,125.717172 -2.53703237,96.0655382 26.811171,93.3856259 Z" id="body-bg" fill="#87B2EC"></path>
                                <path d="M92.1777757,126.867442 L1.82459843,126.867442 L0.07229775,126.867442 L0.509699439,119.321264 C1.36373422,104.587266 12.8589085,93.3428657 26.0135502,93.3428657 L35.0590311,93.3428657 C34.4722173,93.8330087 34.042181,94.3414051 33.7329092,94.8480495 L26.8121402,94.8480495 C14.1337727,94.8480495 3.05478532,105.671404 2.23166607,119.853688 L1.92784092,125.088589 L91.9390379,125.088589 L91.7707084,119.853688 C90.9475891,105.671404 79.8686018,94.8480495 67.1902244,94.8480495 L60.2635629,94.8480495 C59.9986779,94.345134 59.6220218,93.8367767 59.0961572,93.3428657 L67.9084635,93.3428657 C81.0631049,93.3428657 92.5582794,104.587266 93.4123139,119.321264 L93.8497156,126.867442 L92.1777757,126.867442 L92.1777757,126.867442 Z M56.4160121,94.8480495 L55.942704,94.8480495 L55.942704,93.3428657 L56.4685978,93.3428657 C56.4371586,93.73406 56.4169521,94.2271295 56.4160121,94.8480495 L56.4160121,94.8480495 Z M37.3584206,93.3428657 L37.9218007,93.3428657 L37.9218007,94.8480495 L37.4348858,94.8480495 C37.4276075,94.2088373 37.3986012,93.7183223 37.3584206,93.3428657 L37.3584206,93.3428657 Z" id="Rounded-Rectangle-13-copy-4" fill="#E7F0FD"></path>
                                <path d="M62.1754908,101.416134 L55.2652269,111.815595 C53.385407,105.931489 47.9484676,108.121043 47.9484676,108.121043 L47.9484676,125.499573 C47.9484676,125.95274 47.5238198,126.320103 47,126.320103 C46.4761802,126.320103 46.0515324,125.95274 46.0515324,125.499573 L46.0515324,108.120632 C46.0075432,108.103015 40.6138661,105.955497 38.7437472,111.815595 L31.8409846,101.416134 C31.8409846,101.416134 29.1708507,94.5604721 37.2549165,91.564012 L37.2549165,88.4168 L38.7835594,88.4168 L38.7835594,98.3214299 C38.9798101,100.0264 40.1422249,104.884454 47,106.479024 C53.8652278,104.884454 55.0289122,100.0264 55.225376,98.3214299 L55.225376,88.4168 L56.755676,88.4168 L56.755676,91.564012 C64.8485222,94.5604721 62.1754908,101.416134 62.1754908,101.416134 L62.1754908,101.416134 Z M38.6636189,102.336728 C38.2951618,101.91534 37.7644609,100.868784 37.7644609,100.868784 C37.7644609,100.868784 37.2549165,99.1562195 37.2549165,98.4057563 L37.2549165,94.9349794 C37.1396763,93.3696239 36.8488765,93.3428657 36.8488765,93.3428657 C30.8170696,96.3431522 33.4651652,101.005619 33.4651652,101.005619 L38.4730568,108.942052 C40.4286734,105.595641 42.5335084,106.205355 42.5335084,106.205355 C40.675116,105.248822 39.4563164,103.764289 38.6636189,102.336728 L38.6636189,102.336728 Z M57.1621622,93.3428657 C57.1621622,93.3428657 56.8710423,93.3696239 56.755676,94.9349794 L56.755676,98.4057563 C56.755676,99.1562195 56.2455793,100.868784 56.2455793,100.868784 C56.2455793,100.868784 55.714297,101.91534 55.3454426,102.336728 C54.5518825,103.764289 53.3317552,105.248822 51.4713472,106.205355 C51.4713472,106.205355 53.578469,105.595641 55.5362178,108.942052 L60.5495462,101.005619 C60.5495462,101.005619 63.2005202,96.3431522 57.1621622,93.3428657 L57.1621622,93.3428657 Z" id="Shape-2-copy-9" fill="#E7F0FD"></path>
                                <path d="M47.0681694,2.07389845 C63.9239829,2.07389845 77.2282885,17.9813627 76.7956938,37.0945667 L76.3359147,57.4085233 C75.928372,75.4150585 62.8292913,89.6483138 47.0681694,89.6483138 C31.3070471,89.6483138 18.2079664,75.4150585 17.800424,57.4085233 L17.3406449,37.0945667 C16.9080598,17.9813627 30.2123558,2.07389845 47.0681694,2.07389845 L47.0681694,2.07389845 Z" id="2-copy-5" fill="#87B2EC"></path>
                                <path d="M78.1500077,36.4647599 L77.668239,57.6039637 C77.2412071,76.3420142 63.5155101,91.1534976 47.0004459,91.1534976 C30.4853718,91.1534976 16.7596846,76.3420142 16.3326429,57.6039637 L15.8508646,36.4647599 C15.3975884,16.5750785 29.3383181,0.0213751263 47.0004459,0.0213751263 C64.6625736,0.0213751263 78.6032935,16.5750785 78.1500077,36.4647599 L78.1500077,36.4647599 Z M46.9327709,2.21073358 C30.3073895,2.21073358 17.184972,17.9939196 17.6116355,36.9578002 L18.0651347,57.1130571 C18.4671044,74.9789114 31.3871173,89.1009743 46.9327709,89.1009743 C62.4784243,89.1009743 75.3984273,74.9789114 75.8003974,57.1130571 L76.2538867,36.9578002 C76.6805695,17.9939196 63.5581521,2.21073358 46.9327709,2.21073358 L46.9327709,2.21073358 Z" id="2-line" fill="#E7F0FD"></path>
                                <path d="M15.8171577,39.5473962 C15.8134171,39.5476114 15.4844717,39.2823196 14.8633114,39.0848138 C14.5528574,38.9862762 14.1670141,38.9052185 13.7272284,38.8852333 C13.6173957,38.8802418 13.5043553,38.8790574 13.3886887,38.8823752 C13.2730217,38.8856932 13.1547189,38.8935034 13.0344681,38.9064715 C12.7939958,38.9324173 12.5456344,38.9790436 12.2957126,39.051645 C11.2950086,39.3420706 10.2741657,40.0481877 9.67462703,41.5056198 C9.37367047,42.234375 9.17513263,43.1510443 9.12264411,44.2979579 C9.10951205,44.5846934 9.10549991,44.8858162 9.11125645,45.201992 C9.11702284,45.5181675 9.13256809,45.8493957 9.15853115,46.1963424 C9.21042868,46.8902062 9.30414445,47.6469527 9.44377796,48.4715637 C9.44072518,48.4707514 9.31354509,50.9634541 10.1959656,53.8277377 C11.0255296,56.6281403 13.017576,60.0681858 16.6955858,61.0512123 C16.2725756,53.9381277 16.2594344,46.691712 15.8171577,39.5473962 L15.8171577,39.5473962 L15.8171577,39.5473962 Z" id="Shape-11-copy" fill="#87B2EC"></path>
                                <path d="M16.236553,39.8341513 C16.236553,39.8341513 9.82918526,37.829194 10.0546751,44.4814582 C10.0546751,44.4814582 11.0086182,54.1274513 11.422867,55.0164523 C11.422867,55.0164523 13.9392178,60.6326822 18.0920962,60.8815807 C22.1509291,61.1248415 18.0920962,60.8815807 18.0920962,60.8815807 L18.1425011,62.6918217 C18.1425011,62.6918217 10.8433217,61.7467009 9.43353418,53.251937 L8.3208168,45.5348548 C8.3208168,45.5348548 7.45683899,35.3220552 15.8374709,37.918737 C24.0019076,40.4484356 15.8374709,37.918737 15.8374709,37.918737 L16.236553,39.8341513" id="Shape-3" fill="#E7F0FD"></path>
                                <path d="M14.1216972,53.2357099 C14.1216972,53.2357099 13.7631154,53.5093798 13.4550746,53.5093798 C13.1470337,53.5093798 12.792823,53.2357099 12.792823,53.2357099 L12.1315793,46.5063814 C12.1315793,46.5063814 13.0439268,43.1923658 16.9153575,44.9437273 L17.0068731,46.8678815 C17.0068731,46.8678815 13.6102822,45.6513713 13.6805158,47.1662051 C13.7481231,48.6243126 14.1216972,53.2357099 14.1216972,53.2357099 L14.1216972,53.2357099 Z" id="Shape-4" fill="#E7F0FD"></path>
                                <path d="M78.3799362,39.5631048 C78.3836962,39.56332 78.7140855,39.2982139 79.3379594,39.1008354 C79.6497799,39.0023664 80.0373095,38.9213677 80.4790238,38.9013918 C80.5893312,38.8964103 80.7028661,38.8952259 80.8190466,38.8985439 C80.9352172,38.9018517 81.0540336,38.9096619 81.1748175,38.9226204 C81.4163365,38.9485467 81.6657932,38.9951435 81.91681,39.0676961 C82.9218945,39.3579257 83.9472053,40.0635634 84.5493702,41.5200071 C84.8516447,42.2482629 85.0510549,43.1643059 85.1037663,44.3104462 C85.1169565,44.5969861 85.120988,44.8979037 85.1152118,45.2138639 C85.1094165,45.5298239 85.0938036,45.8608273 85.067724,46.2075389 C85.0156039,46.9009329 84.9214711,47.6571704 84.7812272,48.4812138 C84.7842994,48.4804014 84.9120317,50.9714208 84.0257442,53.8337571 C83.1925558,56.6322608 81.1917775,60.069967 77.4976607,61.052328 C77.9225217,53.9440684 77.9357214,46.7025756 78.3799362,39.5631048 L78.3799362,39.5631048 L78.3799362,39.5631048 Z" id="Shape-11-copy_1" fill="#F7FBFB"></path>
                                <path d="M77.6397462,39.8496739 C77.6397462,39.8496739 84.0751799,37.846077 83.8487018,44.4938192 C83.8487018,44.4938192 82.8905817,54.1332651 82.4745107,55.0216593 C82.4745107,55.0216593 79.947141,60.6340818 75.7760815,60.8828138 C71.6994651,61.1259085 75.7760815,60.8828138 75.7760815,60.8828138 L75.7254536,62.6918217 C75.7254536,62.6918217 83.0565953,61.7473468 84.4725563,53.2583477 L85.5901484,45.5465013 C85.5901484,45.5465013 86.4579157,35.3406312 78.0405723,37.9355514 C69.8403845,40.463537 78.0405723,37.9355514 78.0405723,37.9355514 L77.6397462,39.8496739" id="Shape-3_1" fill="#3B434F"></path>
                                <path d="M79.763867,53.2421305 C79.763867,53.2421305 80.1240185,53.5156141 80.4334065,53.5156141 C80.7427945,53.5156141 81.0985559,53.2421305 81.0985559,53.2421305 L81.7626973,46.5173724 C81.7626973,46.5173724 80.8463567,43.2056081 76.9579664,44.9557753 L76.8660531,46.8786277 C76.8660531,46.8786277 80.2775205,45.6629398 80.2069767,47.1767461 C80.1390788,48.6338649 79.763867,53.2421305 79.763867,53.2421305 L79.763867,53.2421305 Z" id="Shape-4_1" fill="#3B434F"></path>
                                <path d="M77.9128302,39.5590235 C77.9165809,39.5592486 78.2458845,39.2927234 78.8677425,39.0943074 C79.1785456,38.9953099 79.5648154,38.9138805 80.0050955,38.8937968 C80.1150444,38.8887762 80.2282105,38.8875918 80.3440131,38.8909294 C80.4598059,38.894257 80.5782348,38.9021063 80.6986211,38.9151331 C80.939365,38.9412063 81.1879978,38.9880379 81.4382103,39.0609821 C82.4400289,39.3527482 83.4620154,40.0621346 84.062213,41.5263199 C84.3635182,42.2584514 84.5622695,43.1793586 84.6148161,44.3315866 C84.6279675,44.6196435 84.6319797,44.9221562 84.6262133,45.2397999 C84.6204469,45.5574435 84.6048826,45.8902085 84.5788903,46.2387504 C84.5269347,46.9358342 84.4331221,47.6960748 84.2933333,48.5245028 C84.2963765,48.5236905 84.423702,51.0279419 83.5403024,53.9054774 C82.709808,56.7188481 80.7155424,60.1748174 77.0334236,61.162405 C77.4568987,54.0163763 77.4700597,46.7364198 77.9128302,39.5590235 L77.9128302,39.5590235 L77.9128302,39.5590235 Z" id="Shape-11" fill="#87B2EC"></path>
                                <path d="M77.7794959,39.8496642 C77.7794959,39.8496642 84.2149201,37.846077 83.9884519,44.4938291 C83.9884519,44.4938291 83.0303219,54.1332551 82.6142703,55.0216689 C82.6142703,55.0216689 80.0869006,60.6340721 75.9158217,60.8828039 C71.8392148,61.1259181 75.9158217,60.8828039 75.9158217,60.8828039 L75.8652037,62.6918217 C75.8652037,62.6918217 83.1963548,61.7473468 84.6123159,53.258338 L85.7299079,45.5465013 C85.7299079,45.5465013 86.5976655,35.3406409 78.1803224,37.9355514 C69.9801343,40.4635274 78.1803224,37.9355514 78.1803224,37.9355514 L77.7794959,39.8496642" id="Shape-3_2" fill="#E7F0FD"></path>
                                <path d="M79.9036168,53.2421305 L81.2383059,53.2421305 L81.9024375,46.5173628 C81.9024375,46.5173628 80.9861068,43.2055982 77.0977161,44.9557753 L77.0058032,46.8786277 C77.0058032,46.8786277 80.4172702,45.6629398 80.3467267,47.1767557 C80.2788289,48.6338649 79.9036168,53.2421305 79.9036168,53.2421305 L79.9036168,53.2421305 Z" id="Shape-4_2" fill="#E7F0FD"></path>
                                <path d="M41.3091851,37.2405034 C42.3568341,37.2405034 43.2061298,38.0981854 43.2061298,39.156192 L43.2061298,50.924002 C43.2061298,51.9820082 42.3568341,52.8397002 41.3091851,52.8397002 L23.1527961,52.8397002 C22.105147,52.8397002 21.2558513,51.9820082 21.2558513,50.924002 L21.2558513,39.156192 C21.2558513,38.0981854 22.105147,37.2405034 23.1527961,37.2405034 L41.3091851,37.2405034 Z" id="Rounded-Rectangle-10" fill="#87B2EC" opacity="0.14902"></path>
                                <path d="M52.4198244,37.2405034 L70.576213,37.2405034 C71.6238624,37.2405034 72.4731578,38.0981854 72.4731578,39.156192 L72.4731578,50.924002 C72.4731578,51.9820082 71.6238624,52.8397002 70.576213,52.8397002 L52.4198244,52.8397002 C51.372175,52.8397002 50.5228796,51.9820082 50.5228796,50.924002 L50.5228796,39.156192 C50.5228796,38.0981854 51.372175,37.2405034 52.4198244,37.2405034 L52.4198244,37.2405034 Z" id="Rounded-Rectangle-10-copy" fill="#87B2EC" opacity="0.14902"></path>
                                <path d="M74.0991025,38.6088524 L74.0991025,48.7346436 C74.0991025,51.2091324 71.7089527,55.0703602 67.8142825,55.2914826 C67.2421509,55.2639317 55.6717131,55.3027279 55.6717131,55.3027279 C50.4704879,55.3027279 49.4389167,49.0083135 49.4389167,49.0083135 L49.4389167,42.1665692 L44.5610833,42.1665692 L44.5610833,49.0083135 C44.5610833,49.0083135 43.5295121,55.3027279 38.3282869,55.3027279 C38.3282869,55.3027279 26.7578491,55.2639317 26.1857175,55.2914826 C22.2910473,55.0703602 19.9008975,51.2091324 19.9008975,48.7346436 L19.9008975,38.6088524 L15.5650459,38.6088524 L15.5650459,35.8721548 L40.7672036,35.8721548 C40.7672036,35.8721548 44.5610833,36.4911169 44.5610833,39.156192 L49.4389167,39.156192 C49.4389167,36.4911169 53.2327964,35.8721548 53.2327964,35.8721548 L78.4349541,35.8721548 L78.4349541,38.6088524 L74.0991025,38.6088524 L74.0991025,38.6088524 Z M41.8511665,39.9772011 C41.8511665,39.0017205 40.7672036,38.882522 40.7672036,38.882522 L22.6108146,38.882522 L22.6108146,48.460974 C22.6108146,51.4454249 26.6756757,52.5660303 26.6756757,52.5660303 L37.7863055,52.5660303 C41.609027,52.5660303 41.8511665,48.460974 41.8511665,48.460974 L41.8511665,39.9772011 L41.8511665,39.9772011 Z M71.3891854,38.882522 L53.2327964,38.882522 C53.2327964,38.882522 52.1488335,39.0017205 52.1488335,39.9772011 L52.1488335,48.460974 C52.1488335,48.460974 52.390973,52.5660303 56.2136945,52.5660303 L67.3243243,52.5660303 C67.3243243,52.5660303 71.3891854,51.4454249 71.3891854,48.460974 L71.3891854,38.882522 L71.3891854,38.882522 Z M67.5953152,55.3027279 C67.6691925,55.3011718 67.741442,55.2956226 67.8142825,55.2914826 C67.8755321,55.2944383 67.8140014,55.298128 67.5953152,55.3027279 L67.5953152,55.3027279 Z M26.1857175,55.2914826 C26.258558,55.2956226 26.3308075,55.3011718 26.4046848,55.3027279 C26.1859986,55.298128 26.1244679,55.2944383 26.1857175,55.2914826 L26.1857175,55.2914826 Z" id="Shape-1-copy-5" fill="#E7F0FD"></path>
                            </g>
                        </g>
                    </g>
                </g>
            </g>
        </g>
    </g>
</svg>